HIERARCHY
ROOT Hips
{
	OFFSET -0.001795 -0.223333 0.028219
	CHANNELS 6 Xposition Yposition Zposition Zrotation Yrotation Xrotation 
	JOINT LeftUpLeg
	{
		OFFSET 0.069520 -0.091406 -0.006815
		CHANNELS 3 Zrotation Yrotation Xrotation
		JOINT LeftLeg
		{
			OFFSET 0.034277 -0.375199 -0.004496
			CHANNELS 3 Zrotation Yrotation Xrotation
			JOINT LeftFoot
			{
				OFFSET -0.013596 -0.397961 -0.043693
				CHANNELS 3 Zrotation Yrotation Xrotation
				JOINT LeftToe
				{
					OFFSET 0.026358 -0.055791 0.119288
					CHANNELS 3 Zrotation Yrotation Xrotation
					End Site
					{
						OFFSET 0.000000 0.000000 0.000000
					}
				}
			}
		}
	}
	JOINT RightUpLeg
	{
		OFFSET -0.067670 -0.090522 -0.004320
		CHANNELS 3 Zrotation Yrotation Xrotation
		JOINT RightLeg
		{
			OFFSET -0.038290 -0.382569 -0.008850
			CHANNELS 3 Zrotation Yrotation Xrotation
			JOINT RightFoot
			{
				OFFSET 0.015774 -0.398415 -0.042312
				CHANNELS 3 Zrotation Yrotation Xrotation
				JOINT RightToe
				{
					OFFSET -0.025372 -0.048144 0.123348
					CHANNELS 3 Zrotation Yrotation Xrotation
					End Site
					{
						OFFSET 0.000000 0.000000 0.000000
					}
				}
			}
		}
	}
	JOINT Spine
	{
		OFFSET -0.002533 0.108963 -0.026696
		CHANNELS 3 Zrotation Yrotation Xrotation
		JOINT Spine1
		{
			OFFSET 0.005487 0.135180 0.001092
			CHANNELS 3 Zrotation Yrotation Xrotation
			JOINT Spine2
			{
				OFFSET 0.001457 0.052922 0.025425
				CHANNELS 3 Zrotation Yrotation Xrotation
				JOINT Neck
				{
					OFFSET -0.002778 0.213870 -0.042857
					CHANNELS 3 Zrotation Yrotation Xrotation
					JOINT Head
					{
						OFFSET 0.005152 0.064970 0.051349
						CHANNELS 3 Zrotation Yrotation Xrotation
						End Site
						{
							OFFSET 0.000000 0.000000 0.000000
						}
					}
				}
				JOINT LeftShoulder
				{
					OFFSET 0.078845 0.121749 -0.034090
					CHANNELS 3 Zrotation Yrotation Xrotation
					JOINT LeftArm
					{
						OFFSET 0.090977 0.030469 -0.008868
						CHANNELS 3 Zrotation Yrotation Xrotation
						JOINT LeftForeArm
						{
							OFFSET 0.259612 -0.012772 -0.027456
							CHANNELS 3 Zrotation Yrotation Xrotation
							JOINT LeftHand
							{
								OFFSET 0.249234 0.008986 -0.001171
								CHANNELS 3 Zrotation Yrotation Xrotation
								End Site
								{
									OFFSET 0.000000 0.000000 0.000000
								}
							}
						}
					}
				}
				JOINT RightShoulder
				{
					OFFSET -0.081759 0.118833 -0.038615
					CHANNELS 3 Zrotation Yrotation Xrotation
					JOINT RightArm
					{
						OFFSET -0.096012 0.032551 -0.009143
						CHANNELS 3 Zrotation Yrotation Xrotation
						JOINT RightForeArm
						{
							OFFSET -0.253742 -0.013329 -0.021401
							CHANNELS 3 Zrotation Yrotation Xrotation
							JOINT RightHand
							{
								OFFSET -0.255298 0.007772 -0.005559
								CHANNELS 3 Zrotation Yrotation Xrotation
								End Site
								{
									OFFSET 0.000000 0.000000 0.000000
								}
							}
						}
					}
				}
			}
		}
	}
}
MOTION
Frames: 15
Frame Time: 0.050000
0.000000 0.950588 0.000000 -2.122888 4.644751 7.247479 5.253025 -0.376428 -3.777990 1.249958 0.192204 -7.366093 1.652273 7.788825 11.934821 0.000000 0.000000 0.000000 -4.289341 0.602015 -7.383147 -0.913413 0.043551 -1.250369 -0.631532 -5.276353 11.167924 0.000000 0.000000 0.000000 1.103759 0.089230 -2.662795 1.539758 -0.375007 -6.475948 -0.157972 -2.506709 6.145376 1.356162 0.250448 -15.344343 0.000000 0.000000 0.000000 -15.755609 3.737457 -3.351782 -58.876454 -6.608633 -3.867957 -8.884217 -19.046823 2.218624 0.000000 0.000000 0.000000 12.717575 -3.262581 -2.655150 62.155829 7.359946 -2.251068 4.112578 16.262721 1.054124 0.000000 0.000000 0.000000 
0.000052 0.949223 0.000064 -2.271502 3.741288 7.502815 4.621646 -0.350359 -3.475586 2.695692 0.187077 -8.220270 1.767770 7.918558 12.077534 0.000000 0.000000 0.000000 -4.756157 0.614187 -7.668512 -0.133491 -0.024723 -0.984405 0.055900 -3.929063 10.800943 0.000000 0.000000 0.000000 1.579451 0.081912 -2.615201 0.536810 0.027543 -6.821658 0.603112 -2.528780 5.917848 0.553802 0.735988 -16.211588 0.000000 0.000000 0.000000 -16.380763 5.272841 -4.093987 -58.485062 -6.052214 -4.073985 -9.698231 -19.376704 2.421683 0.000000 0.000000 0.000000 11.911379 -3.824000 -2.918823 62.877740 6.549790 -2.720999 4.647968 17.237159 1.174860 0.000000 0.000000 0.000000 
0.000084 0.948908 -0.000055 -1.956243 4.136023 7.213111 4.359049 -0.327580 -3.105271 2.957182 0.151443 -7.715919 1.171087 6.931096 11.815677 0.000000 0.000000 0.000000 -4.945657 0.580512 -7.348056 -0.026073 -0.020628 -0.602361 -0.473119 -4.712333 10.040355 0.000000 0.000000 0.000000 1.283859 0.067774 -2.241795 0.637323 0.040767 -7.993588 0.133304 -3.162252 6.451070 -0.030986 1.019771 -15.659809 0.000000 0.000000 0.000000 -15.830771 4.910745 -3.761919 -58.892366 -5.928226 -4.215276 -8.694328 -19.069411 2.229408 0.000000 0.000000 0.000000 13.455655 -3.225515 -2.888742 61.401223 6.568123 -2.727692 4.128674 16.720260 1.065594 0.000000 0.000000 0.000000 
0.000067 0.948834 -0.000117 -2.336549 3.965601 7.412729 4.297933 -0.347533 -3.478464 3.737687 0.121956 -7.659859 1.173627 6.975771 12.000810 0.000000 0.000000 0.000000 -5.055214 0.629037 -8.242601 0.461381 -0.050707 0.025134 -0.442578 -4.693921 10.122285 0.000000 0.000000 0.000000 1.630390 0.068748 -2.370651 -0.029021 0.277288 -7.456654 0.944554 -4.019173 5.390186 -0.298845 1.065903 -15.501216 0.000000 0.000000 0.000000 -15.476673 6.086985 -4.121663 -60.008351 -5.963976 -4.108970 -7.780188 -18.945695 2.096464 0.000000 0.000000 0.000000 12.459973 -3.361796 -3.008247 61.163554 6.755067 -2.569989 5.373099 16.418928 1.157538 0.000000 0.000000 0.000000 
-0.000096 0.949294 -0.000276 -2.238381 4.465612 7.099918 4.149574 -0.324248 -3.075036 3.932178 0.128916 -7.874798 0.619691 6.239888 12.300267 0.000000 0.000000 0.000000 -5.003503 0.603002 -7.913294 0.402647 -0.044184 0.039901 -1.005720 -5.771089 10.136551 0.000000 0.000000 0.000000 1.483650 0.057766 -2.097570 0.269383 0.173782 -7.575063 0.593207 -4.240955 5.352175 -0.529135 1.219476 -15.487016 0.000000 0.000000 0.000000 -15.173383 5.830263 -3.974837 -60.061312 -6.119479 -4.035816 -7.787341 -18.552052 2.044439 0.000000 0.000000 0.000000 12.570161 -3.392394 -3.018728 60.962414 6.884297 -2.485526 5.931742 16.020121 1.196637 0.000000 0.000000 0.000000 
-0.000269 0.949790 -0.000476 -2.246657 4.381703 7.133245 4.008003 -0.321564 -3.069919 4.353176 0.122500 -7.986092 0.672563 6.275907 12.172107 0.000000 0.000000 0.000000 -4.962042 0.613996 -8.065600 0.281154 -0.023740 0.229855 -0.938459 -5.654170 10.168817 0.000000 0.000000 0.000000 1.343032 0.062981 -2.157745 0.270241 0.176469 -7.696075 0.885323 -4.562922 5.472491 -0.329995 1.059809 -15.587525 0.000000 0.000000 0.000000 -15.229067 6.230591 -4.107491 -60.337953 -6.349322 -3.928209 -7.350478 -18.104396 1.938786 0.000000 0.000000 0.000000 11.901236 -3.173694 -2.872999 61.108605 7.211233 -2.368375 6.359836 15.780198 1.217020 0.000000 0.000000 0.000000 
-0.000467 0.950063 -0.000679 -2.250062 4.282261 7.070835 3.879945 -0.308813 -2.898344 4.383782 0.137933 -8.237946 0.774180 6.598740 12.715439 0.000000 0.000000 0.000000 -4.649617 0.622849 -7.987434 0.002835 0.010555 0.297586 -0.846498 -5.417980 9.930014 0.000000 0.000000 0.000000 1.304551 0.061674 -2.110563 0.380556 0.127114 -7.568431 0.749256 -4.686580 5.246465 -0.121237 0.926917 -15.717548 0.000000 0.000000 0.000000 -15.196356 6.304947 -4.118205 -60.388715 -6.026525 -4.068829 -7.450483 -17.664941 1.906143 0.000000 0.000000 0.000000 11.864846 -2.943066 -2.788352 60.831945 7.296924 -2.297117 6.812044 15.846251 1.270221 0.000000 0.000000 0.000000 
-0.000551 0.950321 -0.000873 -2.277124 4.119609 7.079058 3.726263 -0.307638 -2.935705 4.529635 0.133349 -8.238718 1.215691 7.265087 12.662016 0.000000 0.000000 0.000000 -4.376714 0.641042 -8.078425 -0.130010 0.032458 0.471099 -0.790623 -5.259452 9.691068 0.000000 0.000000 0.000000 1.200767 0.067777 -2.199299 0.446779 0.091858 -7.391252 0.822025 -4.664279 4.829130 -0.126777 0.903365 -15.298926 0.000000 0.000000 0.000000 -15.222311 6.341703 -4.134316 -60.179082 -5.977591 -4.039269 -7.413631 -16.994716 1.820971 0.000000 0.000000 0.000000 11.695188 -2.851935 -2.739278 60.607193 7.142570 -2.332773 7.660383 15.962482 1.376112 0.000000 0.000000 0.000000 
-0.000585 0.950484 -0.000998 -2.331183 4.003077 7.031662 3.622701 -0.300878 -2.864674 4.689906 0.134827 -8.334107 1.363521 7.559870 12.915154 0.000000 0.000000 0.000000 -4.155181 0.642742 -7.945033 -0.327130 0.048184 0.299298 -0.754209 -5.183086 9.630260 0.000000 0.000000 0.000000 1.192904 0.068349 -2.200720 0.427774 0.097800 -7.401721 0.956149 -4.778243 4.550491 -0.179502 0.910589 -15.166947 0.000000 0.000000 0.000000 -15.272432 6.313385 -4.096454 -60.170118 -5.842699 -4.076189 -7.508749 -16.001587 1.722489 0.000000 0.000000 0.000000 11.763048 -2.700428 -2.715863 60.054568 7.058321 -2.333496 8.484939 16.020745 1.472203 0.000000 0.000000 0.000000 
-0.000602 0.950582 -0.001123 -2.368935 3.855872 7.089938 3.495355 -0.294247 -2.790055 4.807957 0.139059 -8.445080 1.591276 7.857313 12.761882 0.000000 0.000000 0.000000 -4.025287 0.654074 -8.013745 -0.382416 0.053239 0.271875 -0.694758 -4.996967 9.340947 0.000000 0.000000 0.000000 1.269388 0.078213 -2.422665 0.372317 0.112620 -7.282124 1.026185 -4.805835 4.366695 -0.208995 0.906815 -14.955684 0.000000 0.000000 0.000000 -15.211662 6.315252 -4.070201 -60.202701 -5.745884 -4.104258 -7.448589 -15.282773 1.633053 0.000000 0.000000 0.000000 11.713266 -2.500881 -2.639687 59.723101 6.872368 -2.399239 9.304259 16.383295 1.604575 0.000000 0.000000 0.000000 
-0.000688 0.950472 -0.001276 -2.387964 3.830469 7.117598 3.670363 -0.294296 -2.741052 4.680217 0.147738 -8.516921 1.669103 7.964438 12.724445 0.000000 0.000000 0.000000 -4.050483 0.659149 -8.102889 -0.367458 0.053209 0.312666 -0.716731 -5.042511 9.332649 0.000000 0.000000 0.000000 1.257676 0.087986 -2.620028 0.417154 0.091869 -7.211592 1.080281 -4.867050 4.211228 -0.285237 0.940276 -14.833074 0.000000 0.000000 0.000000 -15.225755 6.257969 -4.031525 -60.057566 -5.541071 -4.182911 -7.480549 -14.589746 1.557532 0.000000 0.000000 0.000000 11.679885 -2.548819 -2.671105 59.702624 6.900070 -2.374037 9.682777 16.387288 1.647519 0.000000 0.000000 0.000000 
-0.000879 0.950247 -0.001482 -2.421757 3.641678 7.211466 3.837298 -0.294143 -2.692330 4.635868 0.161627 -8.698715 1.688821 7.978451 12.751222 0.000000 0.000000 0.000000 -4.072268 0.669629 -8.236402 -0.275552 0.042750 0.313161 -0.637168 -4.869418 9.224868 0.000000 0.000000 0.000000 1.337608 0.098236 -2.844880 0.370431 0.104059 -7.131505 1.265669 -4.967497 4.006566 -0.356469 0.947542 -14.532868 0.000000 0.000000 0.000000 -15.218652 6.385878 -4.056016 -60.010006 -5.487359 -4.176509 -7.439518 -13.584319 1.440984 0.000000 0.000000 0.000000 11.499659 -2.580067 -2.694645 59.887546 6.799681 -2.429459 9.691843 16.381357 1.638745 0.000000 0.000000 0.000000 
-0.001099 0.950065 -0.001658 -2.436177 3.643405 7.250087 3.993928 -0.300504 -2.753366 4.510337 0.160164 -8.626717 1.708299 8.003148 12.733290 0.000000 0.000000 0.000000 -4.026354 0.682578 -8.411206 -0.302244 0.052282 0.474125 -0.688118 -4.998783 9.309789 0.000000 0.000000 0.000000 1.340555 0.103137 -2.948024 0.402190 0.088364 -7.046220 1.431235 -4.968877 3.713183 -0.379499 0.944266 -14.190578 0.000000 0.000000 0.000000 -15.258987 6.370688 -4.053168 -59.825351 -5.383966 -4.189481 -7.387544 -13.040724 1.371635 0.000000 0.000000 0.000000 11.520875 -2.670399 -2.748397 59.937969 6.524641 -2.546374 9.562391 16.335418 1.614537 0.000000 0.000000 0.000000 
-0.001260 0.949997 -0.001820 -2.447098 3.723574 7.362167 4.086485 -0.310886 -2.885955 4.504934 0.160664 -8.626551 1.652366 7.953052 12.839745 0.000000 0.000000 0.000000 -4.014103 0.694765 -8.593806 -0.233785 0.046784 0.532537 -0.848299 -5.345120 9.408127 0.000000 0.000000 0.000000 1.237765 0.107191 -3.026940 0.477999 0.060020 -7.057849 1.574754 -4.947724 3.397289 -0.412559 0.953056 -13.819488 0.000000 0.000000 0.000000 -15.228834 6.303906 -4.028240 -59.709929 -5.234939 -4.227015 -7.304659 -12.647153 1.315388 0.000000 0.000000 0.000000 11.499854 -2.760343 -2.784934 60.014783 6.162142 -2.703213 9.357301 16.356997 1.590795 0.000000 0.000000 0.000000 
-0.001353 0.949843 -0.001925 -2.410261 3.879055 7.351740 4.194560 -0.316555 -2.943333 4.357424 0.163191 -8.603408 1.604024 7.859216 12.713907 0.000000 0.000000 0.000000 -4.061362 0.691217 -8.599991 -0.180157 0.041332 0.550683 -0.923158 -5.474860 9.389563 0.000000 0.000000 0.000000 1.206209 0.107677 -3.037926 0.525610 0.048326 -7.178009 1.642695 -4.978487 3.455023 -0.399709 0.946948 -13.791174 0.000000 0.000000 0.000000 -15.146880 6.431894 -4.088091 -59.693681 -5.268038 -4.214899 -7.243517 -12.879148 1.334441 0.000000 0.000000 0.000000 11.487613 -2.825441 -2.804046 60.124003 5.911213 -2.844519 8.926993 16.350814 1.539786 0.000000 0.000000 0.000000 
